<svg width="110" height="41" viewBox="0 0 110 41" fill="none" xmlns="http://www.w3.org/2000/svg">
<path d="M23.785 20.2C26.0217 20.6767 27.8183 21.795 29.175 23.555C30.5317 25.2783 31.21 27.2583 31.21 29.495C31.21 32.7217 30.0733 35.2883 27.8 37.195C25.5633 39.065 22.4283 40 18.395 40H0.41V1.39H17.79C21.7133 1.39 24.775 2.28833 26.975 4.085C29.2117 5.88166 30.33 8.32 30.33 11.4C30.33 13.6733 29.725 15.5617 28.515 17.065C27.3417 18.5683 25.765 19.6133 23.785 20.2ZM9.815 17.01H15.975C17.515 17.01 18.6883 16.68 19.495 16.02C20.3383 15.3233 20.76 14.315 20.76 12.995C20.76 11.675 20.3383 10.6667 19.495 9.97C18.6883 9.27333 17.515 8.925 15.975 8.925H9.815V17.01ZM16.745 32.41C18.3217 32.41 19.5317 32.0617 20.375 31.365C21.255 30.6317 21.695 29.5867 21.695 28.23C21.695 26.8733 21.2367 25.81 20.32 25.04C19.44 24.27 18.2117 23.885 16.635 23.885H9.815V32.41H16.745ZM69.7749 1.39L56.4099 27.24V40H47.0049V27.24L33.6399 1.39H44.3099L51.7899 17.56L59.2149 1.39H69.7749Z" fill="#7440EF"/>
<path d="M71.9693 20.64C71.9693 16.8267 72.7943 13.435 74.4443 10.465C76.0943 7.45833 78.386 5.13 81.3193 3.48C84.2893 1.79333 87.6443 0.949998 91.3843 0.949998C95.9676 0.949998 99.891 2.16 103.154 4.58C106.418 7 108.599 10.3 109.699 14.48H99.3593C98.5893 12.8667 97.4893 11.6383 96.0593 10.795C94.666 9.95167 93.071 9.53 91.2743 9.53C88.3776 9.53 86.031 10.5383 84.2343 12.555C82.4376 14.5717 81.5393 17.2667 81.5393 20.64C81.5393 24.0133 82.4376 26.7083 84.2343 28.725C86.031 30.7417 88.3776 31.75 91.2743 31.75C93.071 31.75 94.666 31.3283 96.0593 30.485C97.4893 29.6417 98.5893 28.4133 99.3593 26.8H109.699C108.599 30.98 106.418 34.28 103.154 36.7C99.891 39.0833 95.9676 40.275 91.3843 40.275C87.6443 40.275 84.2893 39.45 81.3193 37.8C78.386 36.1133 76.0943 33.785 74.4443 30.815C72.7943 27.845 71.9693 24.4533 71.9693 20.64Z" fill="black"/>
</svg>
