<svg width="51" height="19" viewBox="0 0 51 19" fill="none" xmlns="http://www.w3.org/2000/svg">
<path d="M11.175 9C12.1917 9.21667 13.0083 9.725 13.625 10.525C14.2417 11.3083 14.55 12.2083 14.55 13.225C14.55 14.6917 14.0333 15.8583 13 16.725C11.9833 17.575 10.5583 18 8.725 18H0.55V0.449999H8.45C10.2333 0.449999 11.625 0.858332 12.625 1.675C13.6417 2.49167 14.15 3.6 14.15 5C14.15 6.03333 13.875 6.89167 13.325 7.575C12.7917 8.25833 12.075 8.73333 11.175 9ZM4.825 7.55H7.625C8.325 7.55 8.85833 7.4 9.225 7.1C9.60833 6.78333 9.8 6.325 9.8 5.725C9.8 5.125 9.60833 4.66667 9.225 4.35C8.85833 4.03333 8.325 3.875 7.625 3.875H4.825V7.55ZM7.975 14.55C8.69167 14.55 9.24167 14.3917 9.625 14.075C10.025 13.7417 10.225 13.2667 10.225 12.65C10.225 12.0333 10.0167 11.55 9.6 11.2C9.2 10.85 8.64167 10.675 7.925 10.675H4.825V14.55H7.975ZM32.0795 0.449999L26.0045 12.2V18H21.7295V12.2L15.6545 0.449999H20.5045L23.9045 7.8L27.2795 0.449999H32.0795ZM33.077 9.2C33.077 7.46667 33.452 5.925 34.202 4.575C34.952 3.20833 35.9936 2.15 37.327 1.4C38.677 0.633332 40.202 0.249999 41.902 0.249999C43.9853 0.249999 45.7686 0.799999 47.252 1.9C48.7353 3 49.727 4.5 50.227 6.4H45.527C45.177 5.66667 44.677 5.10833 44.027 4.725C43.3936 4.34167 42.6686 4.15 41.852 4.15C40.5353 4.15 39.4686 4.60833 38.652 5.525C37.8353 6.44167 37.427 7.66667 37.427 9.2C37.427 10.7333 37.8353 11.9583 38.652 12.875C39.4686 13.7917 40.5353 14.25 41.852 14.25C42.6686 14.25 43.3936 14.0583 44.027 13.675C44.677 13.2917 45.177 12.7333 45.527 12H50.227C49.727 13.9 48.7353 15.4 47.252 16.5C45.7686 17.5833 43.9853 18.125 41.902 18.125C40.202 18.125 38.677 17.75 37.327 17C35.9936 16.2333 34.952 15.175 34.202 13.825C33.452 12.475 33.077 10.9333 33.077 9.2Z" fill="white"/>
</svg>
