<svg width="213" height="127" viewBox="0 0 213 127" fill="none" xmlns="http://www.w3.org/2000/svg">
<path d="M34.09 51.8C36.9367 52.4067 39.2233 53.83 40.95 56.07C42.6767 58.2633 43.54 60.7833 43.54 63.63C43.54 67.7367 42.0933 71.0033 39.2 73.43C36.3533 75.81 32.3633 77 27.23 77H4.34V27.86H26.46C31.4533 27.86 35.35 29.0033 38.15 31.29C40.9967 33.5767 42.42 36.68 42.42 40.6C42.42 43.4933 41.65 45.8967 40.11 47.81C38.6167 49.7233 36.61 51.0533 34.09 51.8ZM16.31 47.74H24.15C26.11 47.74 27.6033 47.32 28.63 46.48C29.7033 45.5933 30.24 44.31 30.24 42.63C30.24 40.95 29.7033 39.6667 28.63 38.78C27.6033 37.8933 26.11 37.45 24.15 37.45H16.31V47.74ZM25.13 67.34C27.1367 67.34 28.6767 66.8967 29.75 66.01C30.87 65.0767 31.43 63.7467 31.43 62.02C31.43 60.2933 30.8467 58.94 29.68 57.96C28.56 56.98 26.9967 56.49 24.99 56.49H16.31V67.34H25.13ZM92.6226 27.86L75.6126 60.76V77H63.6426V60.76L46.6326 27.86H60.2126L69.7326 48.44L79.1826 27.86H92.6226Z" fill="#7440EF"/>
<path d="M1.188 100.328C1.188 97.832 1.728 95.612 2.808 93.668C3.888 91.7 5.388 90.176 7.308 89.096C9.252 87.992 11.448 87.44 13.896 87.44C16.896 87.44 19.464 88.232 21.6 89.816C23.736 91.4 25.164 93.56 25.884 96.296H19.116C18.612 95.24 17.892 94.436 16.956 93.884C16.044 93.332 15 93.056 13.824 93.056C11.928 93.056 10.392 93.716 9.216 95.036C8.04 96.356 7.452 98.12 7.452 100.328C7.452 102.536 8.04 104.3 9.216 105.62C10.392 106.94 11.928 107.6 13.824 107.6C15 107.6 16.044 107.324 16.956 106.772C17.892 106.22 18.612 105.416 19.116 104.36H25.884C25.164 107.096 23.736 109.256 21.6 110.84C19.464 112.4 16.896 113.18 13.896 113.18C11.448 113.18 9.252 112.64 7.308 111.56C5.388 110.456 3.888 108.932 2.808 106.988C1.728 105.044 1.188 102.824 1.188 100.328ZM41.6059 113.252C39.2299 113.252 37.0459 112.7 35.0539 111.596C33.0859 110.492 31.5139 108.956 30.3379 106.988C29.1859 104.996 28.6099 102.764 28.6099 100.292C28.6099 97.82 29.1859 95.6 30.3379 93.632C31.5139 91.664 33.0859 90.128 35.0539 89.024C37.0459 87.92 39.2299 87.368 41.6059 87.368C43.9819 87.368 46.1539 87.92 48.1219 89.024C50.1139 90.128 51.6739 91.664 52.8019 93.632C53.9539 95.6 54.5299 97.82 54.5299 100.292C54.5299 102.764 53.9539 104.996 52.8019 106.988C51.6499 108.956 50.0899 110.492 48.1219 111.596C46.1539 112.7 43.9819 113.252 41.6059 113.252ZM41.6059 107.636C43.6219 107.636 45.2299 106.964 46.4299 105.62C47.6539 104.276 48.2659 102.5 48.2659 100.292C48.2659 98.06 47.6539 96.284 46.4299 94.964C45.2299 93.62 43.6219 92.948 41.6059 92.948C39.5659 92.948 37.9339 93.608 36.7099 94.928C35.5099 96.248 34.9099 98.036 34.9099 100.292C34.9099 102.524 35.5099 104.312 36.7099 105.656C37.9339 106.976 39.5659 107.636 41.6059 107.636ZM80.5627 113H74.4067L64.1107 97.412V113H57.9547V87.728H64.1107L74.4067 103.388V87.728H80.5627V113ZM103.205 87.728V92.66H96.509V113H90.353V92.66H83.657V87.728H103.205ZM119.183 113L113.927 103.46H112.451V113H106.295V87.728H116.627C118.619 87.728 120.311 88.076 121.703 88.772C123.119 89.468 124.175 90.428 124.871 91.652C125.567 92.852 125.915 94.196 125.915 95.684C125.915 97.364 125.435 98.864 124.475 100.184C123.539 101.504 122.147 102.44 120.299 102.992L126.131 113H119.183ZM112.451 99.104H116.267C117.395 99.104 118.235 98.828 118.787 98.276C119.363 97.724 119.651 96.944 119.651 95.936C119.651 94.976 119.363 94.22 118.787 93.668C118.235 93.116 117.395 92.84 116.267 92.84H112.451V99.104ZM145.511 108.536H136.079L134.567 113H128.123L137.267 87.728H144.395L153.539 113H147.023L145.511 108.536ZM143.927 103.784L140.795 94.532L137.699 103.784H143.927ZM155.278 100.328C155.278 97.832 155.818 95.612 156.898 93.668C157.978 91.7 159.478 90.176 161.398 89.096C163.342 87.992 165.538 87.44 167.986 87.44C170.986 87.44 173.554 88.232 175.69 89.816C177.826 91.4 179.254 93.56 179.974 96.296H173.206C172.702 95.24 171.982 94.436 171.046 93.884C170.134 93.332 169.09 93.056 167.914 93.056C166.018 93.056 164.482 93.716 163.306 95.036C162.13 96.356 161.542 98.12 161.542 100.328C161.542 102.536 162.13 104.3 163.306 105.62C164.482 106.94 166.018 107.6 167.914 107.6C169.09 107.6 170.134 107.324 171.046 106.772C171.982 106.22 172.702 105.416 173.206 104.36H179.974C179.254 107.096 177.826 109.256 175.69 110.84C173.554 112.4 170.986 113.18 167.986 113.18C165.538 113.18 163.342 112.64 161.398 111.56C159.478 110.456 157.978 108.932 156.898 106.988C155.818 105.044 155.278 102.824 155.278 100.328ZM201.924 87.728V92.66H195.228V113H189.072V92.66H182.376V87.728H201.924Z" fill="black"/>
</svg>
